<?xml version="1.0" encoding="UTF-8" standalone="no"?>
<svg
   xmlns="http://www.w3.org/2000/svg"
   width="430.35068"
   height="431.5314"
   id="svg2"
   version="1.0">
  <path
     id="path10534"
     d="m 39.129426,391.22116 c 3.066828,-14.75235 7.53896,-29.55818 29.592094,-51.40753 25.616166,-25.37933 28.350428,-17.31028 48.00322,-26.18778 -8.8775,19.65282 -0.80844,22.38704 -26.187866,48.00314 -21.849232,22.05321 -36.655086,26.52535 -51.407448,29.59217 z"
     style="opacity:0.98999999;fill:#ffce00;fill-opacity:1;stroke:#000000;stroke-width:2.5;stroke-miterlimit:4;stroke-dasharray:none;stroke-opacity:1" />
  <path
     id="path10536"
     d="m 27.266868,382.33015 c -5.939753,-5.76326 2.752717,-10.18185 6.96054,-10.30283 7.717929,-0.22189 10.112695,3.62381 16.610999,9.42943 5.805616,6.4983 9.651308,8.89306 9.42934,16.61088 -0.120894,4.20793 -4.53947,12.90042 -10.302744,6.96065 l -11.014899,-11.0149 -0.334151,-0.33418 -0.33427,-0.33427 z"
     style="opacity:0.98999999;fill:#ffce00;fill-opacity:1;stroke:#000000;stroke-width:2.5;stroke-miterlimit:4;stroke-dasharray:none;stroke-opacity:1" />
  <path
     id="path10538"
     d="m 102.90573,309.88312 8.63168,-8.63168 8.78089,8.78085 8.78079,8.78079 -8.63168,8.63168 -8.7808,-8.78076 z"
     style="opacity:0.98999999;fill:#fcef3c;fill-opacity:1;stroke:#000000;stroke-width:2.5;stroke-miterlimit:4;stroke-dasharray:none;stroke-opacity:1" />
  <path
     id="path10542"
     d="m 101.03417,307.71873 c 6.72436,-10.13819 35.35388,-21.57713 33.87072,-34.33191 l 11.02945,11.02945 11.02947,11.02944 c -12.75481,-1.48316 -24.19373,27.14635 -34.33194,33.87072 l -10.79886,-10.79886 z"
     style="opacity:0.98999999;fill:#f0f0f0;fill-opacity:1;stroke:#000000;stroke-width:2.5;stroke-linejoin:round;stroke-miterlimit:4;stroke-dasharray:none;stroke-opacity:1" />
  <path
     id="path10544"
     d="M 145.93434,284.41627 409.24226,21.1078 378.56237,37.143745 132.94858,271.43051 l 4.28323,8.70262 z"
     style="opacity:0.98999999;fill:#f0f0f0;fill-opacity:1;stroke:#000000;stroke-width:2.5;stroke-miterlimit:4;stroke-dasharray:none;stroke-opacity:1" />
  <path
     style="opacity:0.98999999;fill:#f0f0f0;fill-opacity:1;stroke:#000000;stroke-width:2.5;stroke-miterlimit:4;stroke-dasharray:none;stroke-opacity:1"
     d="M 145.93434,284.41627 409.24285,21.108224 393.20673,51.788272 158.92012,297.40202 l -8.70266,-4.28321 z"
     id="path10546" />
  <path
     id="path14664"
     d="m 59.30331,404.52875 c 2.981317,-2.45042 2.400627,-8.07674 2.436492,-11.92238 L 26.220456,357.08702 c 0,0 -17.2556622,-19.27903 12.530331,-48.73419 C 68.331058,279.10111 87.48498,295.8225 87.48498,295.8225 l 48.62872,48.62872 c -3.90515,-14.63058 10.18578,-10.85433 15.18077,-5.58806 8.49718,8.95864 -9.56058,26.74271 -22.64891,13.65437 L 83.163886,307.03586 c 0,0 -13.741624,-9.87827 -35.64753,13.02011 -21.90124,22.89353 -10.1917,32.81912 -10.1917,32.81912 l 39.230977,39.23098 c 7.442066,7.44206 1.679796,15.45132 -6.222179,17.70928 -6.242225,1.78369 -9.324787,-1.75139 -11.030144,-5.2866 z"
     style="fill:#ffce00;fill-opacity:1;stroke:#000000;stroke-width:2.5;stroke-linecap:butt;stroke-linejoin:round;stroke-miterlimit:4;stroke-dasharray:none;stroke-opacity:1" />
  <path
     id="path10534-1"
     d="m 391.22124,391.22116 c -3.06683,-14.75235 -7.53896,-29.55818 -29.59209,-51.40753 -25.61617,-25.37933 -28.35043,-17.31028 -48.00322,-26.18778 8.87749,19.65282 0.80844,22.38704 26.18786,48.00314 21.84924,22.05321 36.65509,26.52535 51.40745,29.59217 z"
     style="opacity:0.98999999;fill:#ffce00;fill-opacity:1;stroke:#000000;stroke-width:2.5;stroke-miterlimit:4;stroke-dasharray:none;stroke-opacity:1" />
  <path
     id="path10536-3"
     d="m 403.0838,382.33015 c 5.93975,-5.76326 -2.75272,-10.18185 -6.96054,-10.30283 -7.71793,-0.22189 -10.1127,3.62381 -16.611,9.42943 -5.80561,6.4983 -9.65131,8.89306 -9.42934,16.61088 0.12089,4.20793 4.53947,12.90042 10.30274,6.96065 l 11.0149,-11.0149 0.33415,-0.33418 0.33427,-0.33427 z"
     style="opacity:0.98999999;fill:#ffce00;fill-opacity:1;stroke:#000000;stroke-width:2.5;stroke-miterlimit:4;stroke-dasharray:none;stroke-opacity:1" />
  <path
     id="path10538-6"
     d="m 327.44493,309.88312 -8.63168,-8.63168 -8.78088,8.78085 -8.78079,8.78079 8.63168,8.63168 8.78079,-8.78076 z"
     style="opacity:0.98999999;fill:#fcef3c;fill-opacity:1;stroke:#000000;stroke-width:2.5;stroke-miterlimit:4;stroke-dasharray:none;stroke-opacity:1" />
  <path
     id="path10542-6"
     d="m 329.3165,307.71873 c -6.72436,-10.13819 -35.35388,-21.57713 -33.87072,-34.33191 l -11.02945,11.02945 -11.02947,11.02944 c 12.75481,-1.48316 24.19373,27.14635 34.33194,33.87072 l 10.79885,-10.79886 z"
     style="opacity:0.98999999;fill:#f0f0f0;fill-opacity:1;stroke:#000000;stroke-width:2.5;stroke-linejoin:round;stroke-miterlimit:4;stroke-dasharray:none;stroke-opacity:1" />
  <path
     id="path10544-3"
     d="M 284.41633,284.41627 21.108408,21.1078 51.788293,37.143745 297.40209,271.43051 l -4.28323,8.70262 z"
     style="opacity:0.98999999;fill:#f0f0f0;fill-opacity:1;stroke:#000000;stroke-width:2.5;stroke-miterlimit:4;stroke-dasharray:none;stroke-opacity:1" />
  <path
     style="opacity:0.98999999;fill:#f0f0f0;fill-opacity:1;stroke:#000000;stroke-width:2.5;stroke-miterlimit:4;stroke-dasharray:none;stroke-opacity:1"
     d="M 284.41633,284.41627 21.107814,21.108224 37.143935,51.788272 271.43055,297.40202 l 8.70265,-4.28321 z"
     id="path10546-5" />
  <path
     id="path14664-0"
     d="m 371.04736,404.52875 c -2.98132,-2.45042 -2.40063,-8.07674 -2.43649,-11.92238 l 35.51934,-35.51935 c 0,0 17.25566,-19.27903 -12.53033,-48.73419 -29.58027,-29.25172 -48.73419,-12.53033 -48.73419,-12.53033 l -48.62873,48.62872 c 3.90516,-14.63058 -10.18577,-10.85433 -15.18076,-5.58806 -8.49719,8.95864 9.56057,26.74271 22.64891,13.65437 l 45.48167,-45.48167 c 0,0 13.74163,-9.87828 35.64753,13.02011 21.90124,22.89352 10.1917,32.81912 10.1917,32.81912 l -39.23098,39.23098 c -7.44206,7.44206 -1.67979,15.45132 6.22218,17.70928 6.24223,1.78369 9.32479,-1.75139 11.03015,-5.2866 z"
     style="fill:#ffce00;fill-opacity:1;stroke:#000000;stroke-width:2.5;stroke-linecap:butt;stroke-linejoin:round;stroke-miterlimit:4;stroke-dasharray:none;stroke-opacity:1" />
</svg>
